<?xml version="1.0" encoding="UTF-8"?><svg xmlns="http://www.w3.org/2000/svg" xmlns:xlink="http://www.w3.org/1999/xlink" contentScriptType="text/ecmascript" width="375" zoomAndPan="magnify" contentStyleType="text/css" viewBox="0 0 375 374.999991" height="374.999991" preserveAspectRatio="xMidYMid meet" version="1.0"><defs><clipPath id="clip-0"><path d="M 7.585938 19 L 367.585938 19 L 367.585938 363 L 7.585938 363 Z M 7.585938 19 " clip-rule="nonzero"/></clipPath></defs><g clip-path="url(#clip-0)"><path fill="rgb(100%, 100%, 100%)" d="M 337.960938 206.945312 L 332.710938 201.015625 C 333.933594 200.535156 334.960938 199.785156 335.789062 198.765625 C 337.0625 197.113281 367.585938 158.546875 367.585938 122.382812 C 367.585938 121.480469 366.460938 30.839844 267.238281 20.785156 C 265.289062 20.335938 221.113281 12.457031 187.585938 40.96875 C 176.789062 32.417969 154.511719 18.460938 108.613281 20.636719 C 13.886719 29.789062 7.585938 121.03125 7.585938 122.082031 C 7.546875 129.824219 8.089844 137.523438 9.222656 145.183594 C 10.351562 152.839844 12.054688 160.371094 14.332031 167.769531 C 16.609375 175.167969 19.433594 182.355469 22.804688 189.324219 C 26.171875 196.292969 30.050781 202.964844 34.4375 209.34375 C 32.007812 212.511719 30.160156 215.988281 28.886719 219.773438 C 28.425781 221.128906 28.0625 222.507812 27.800781 223.914062 C 27.542969 225.320312 27.382812 226.738281 27.332031 228.167969 C 27.277344 229.597656 27.328125 231.023438 27.484375 232.445312 C 27.640625 233.863281 27.902344 235.269531 28.261719 236.652344 C 28.625 238.035156 29.085938 239.386719 29.644531 240.703125 C 30.203125 242.019531 30.855469 243.285156 31.601562 244.507812 C 32.34375 245.726562 33.175781 246.886719 34.089844 247.984375 C 35.007812 249.085938 35.996094 250.109375 37.0625 251.0625 C 38.4375 252.566406 39.949219 253.917969 41.597656 255.113281 C 43.25 256.308594 45.003906 257.328125 46.859375 258.164062 C 48.714844 259.003906 50.636719 259.644531 52.625 260.09375 C 54.613281 260.539062 56.625 260.78125 58.664062 260.816406 L 61.4375 260.816406 C 61.242188 263.074219 61.304688 265.324219 61.628906 267.5625 C 61.953125 269.804688 62.53125 271.980469 63.355469 274.089844 C 64.183594 276.195312 65.238281 278.183594 66.523438 280.046875 C 67.804688 281.914062 69.285156 283.605469 70.960938 285.128906 C 72.339844 286.636719 73.859375 287.992188 75.515625 289.1875 C 77.171875 290.386719 78.929688 291.40625 80.792969 292.246094 C 82.65625 293.082031 84.585938 293.726562 86.582031 294.167969 C 88.574219 294.613281 90.59375 294.851562 92.636719 294.882812 L 95.335938 294.882812 C 95.222656 297.097656 95.355469 299.296875 95.730469 301.480469 C 96.101562 303.664062 96.710938 305.78125 97.554688 307.832031 C 98.398438 309.882812 99.453125 311.816406 100.726562 313.628906 C 101.996094 315.445312 103.449219 317.101562 105.085938 318.59375 C 106.460938 320.097656 107.972656 321.449219 109.625 322.644531 C 111.273438 323.839844 113.027344 324.855469 114.882812 325.695312 C 116.742188 326.535156 118.664062 327.175781 120.652344 327.621094 C 122.636719 328.070312 124.652344 328.3125 126.6875 328.347656 L 129.386719 328.347656 C 129.21875 330.605469 129.304688 332.851562 129.644531 335.089844 C 129.984375 337.328125 130.570312 339.5 131.402344 341.605469 C 132.234375 343.707031 133.289062 345.695312 134.570312 347.558594 C 135.851562 349.425781 137.324219 351.125 138.988281 352.660156 C 140.363281 354.164062 141.875 355.511719 143.523438 356.707031 C 145.171875 357.90625 146.925781 358.921875 148.785156 359.761719 C 150.640625 360.597656 152.5625 361.242188 154.550781 361.6875 C 156.539062 362.132812 158.550781 362.375 160.585938 362.414062 C 162.71875 362.335938 164.824219 362.070312 166.902344 361.605469 C 168.984375 361.144531 171.003906 360.496094 172.964844 359.664062 C 174.925781 358.828125 176.796875 357.824219 178.574219 356.648438 C 180.351562 355.46875 182.003906 354.140625 183.539062 352.660156 L 187.289062 348.832031 L 191.488281 353.035156 C 192.976562 354.511719 194.585938 355.835938 196.324219 357.011719 C 198.0625 358.183594 199.890625 359.183594 201.816406 360.011719 C 203.742188 360.839844 205.730469 361.480469 207.777344 361.9375 C 209.820312 362.390625 211.890625 362.648438 213.988281 362.714844 C 216.035156 362.691406 218.058594 362.460938 220.058594 362.027344 C 222.058594 361.589844 223.992188 360.957031 225.863281 360.125 C 227.734375 359.292969 229.5 358.277344 231.164062 357.085938 C 232.824219 355.890625 234.351562 354.539062 235.738281 353.035156 C 237.398438 351.492188 238.871094 349.785156 240.144531 347.914062 C 241.421875 346.039062 242.472656 344.046875 243.296875 341.933594 C 244.121094 339.824219 244.699219 337.644531 245.03125 335.402344 C 245.363281 333.160156 245.441406 330.910156 245.261719 328.648438 L 247.960938 328.648438 C 250.039062 328.652344 252.097656 328.441406 254.132812 328.019531 C 256.167969 327.59375 258.136719 326.96875 260.042969 326.132812 C 261.945312 325.300781 263.742188 324.28125 265.4375 323.074219 C 267.128906 321.867188 268.679688 320.5 270.085938 318.96875 C 271.761719 317.445312 273.242188 315.753906 274.527344 313.886719 C 275.8125 312.023438 276.867188 310.035156 277.695312 307.929688 C 278.519531 305.820312 279.09375 303.644531 279.417969 301.402344 C 279.742188 299.164062 279.808594 296.914062 279.613281 294.65625 C 280.734375 294.695312 281.855469 294.679688 282.972656 294.601562 C 284.09375 294.527344 285.207031 294.394531 286.3125 294.203125 C 287.417969 294.015625 288.511719 293.769531 289.59375 293.464844 C 290.671875 293.164062 291.734375 292.808594 292.78125 292.398438 C 293.824219 291.984375 294.84375 291.523438 295.839844 291.007812 C 296.835938 290.492188 297.804688 289.925781 298.746094 289.3125 C 299.683594 288.695312 300.589844 288.035156 301.460938 287.328125 C 302.332031 286.621094 303.164062 285.871094 303.957031 285.078125 C 304.75 284.285156 305.503906 283.453125 306.210938 282.582031 C 306.921875 281.714844 307.585938 280.808594 308.203125 279.871094 C 308.816406 278.933594 309.386719 277.964844 309.902344 276.96875 C 310.417969 275.972656 310.886719 274.953125 311.296875 273.910156 C 311.710938 272.867188 312.070312 271.804688 312.375 270.722656 C 312.679688 269.644531 312.925781 268.550781 313.117188 267.445312 C 313.3125 266.339844 313.445312 265.226562 313.523438 264.105469 C 313.601562 262.984375 313.625 261.863281 313.585938 260.742188 C 315.820312 260.882812 318.042969 260.773438 320.253906 260.417969 C 322.464844 260.058594 324.609375 259.460938 326.683594 258.625 C 328.761719 257.789062 330.71875 256.730469 332.558594 255.453125 C 334.398438 254.179688 336.074219 252.714844 337.585938 251.0625 C 338.636719 250.113281 339.613281 249.09375 340.515625 248.003906 C 341.417969 246.914062 342.234375 245.765625 342.972656 244.554688 C 343.707031 243.347656 344.351562 242.09375 344.90625 240.789062 C 345.460938 239.488281 345.917969 238.152344 346.277344 236.785156 C 346.640625 235.417969 346.898438 234.027344 347.058594 232.625 C 347.21875 231.21875 347.277344 229.808594 347.234375 228.390625 C 347.191406 226.976562 347.046875 225.574219 346.800781 224.179688 C 346.554688 222.785156 346.207031 221.417969 345.761719 220.074219 C 344.09375 215.144531 341.492188 210.765625 337.960938 206.945312 Z M 193.210938 55.976562 C 221.488281 28.214844 264.011719 35.71875 265.0625 35.867188 C 351.238281 44.347656 352.585938 119.230469 352.585938 122.382812 C 352.585938 153.21875 324.3125 189.011719 324.085938 189.386719 C 323.792969 189.707031 323.542969 190.054688 323.335938 190.4375 L 225.085938 79.613281 L 224.636719 79.613281 C 224.5625 79.171875 224.363281 78.796875 224.039062 78.488281 L 215.261719 78.488281 L 214.8125 78.863281 L 159.761719 134.011719 C 159.394531 134.421875 159.007812 134.808594 158.601562 135.175781 C 158.195312 135.542969 157.769531 135.890625 157.324219 136.210938 C 156.882812 136.535156 156.421875 136.832031 155.949219 137.109375 C 155.472656 137.382812 154.984375 137.632812 154.484375 137.855469 C 153.984375 138.078125 153.472656 138.277344 152.949219 138.445312 C 152.429688 138.617188 151.902344 138.757812 151.363281 138.871094 C 150.828125 138.984375 150.285156 139.070312 149.742188 139.128906 C 149.195312 139.1875 148.648438 139.214844 148.101562 139.214844 C 147.550781 139.214844 147.003906 139.1875 146.457031 139.128906 C 145.914062 139.070312 145.371094 138.984375 144.835938 138.871094 C 144.300781 138.757812 143.769531 138.617188 143.25 138.445312 C 142.726562 138.277344 142.214844 138.078125 141.714844 137.855469 C 141.214844 137.632812 140.726562 137.382812 140.25 137.109375 C 139.777344 136.832031 139.316406 136.535156 138.875 136.210938 C 138.429688 135.890625 138.003906 135.542969 137.597656 135.175781 C 137.191406 134.808594 136.804688 134.421875 136.4375 134.011719 C 136.035156 133.644531 135.652344 133.253906 135.289062 132.847656 C 134.929688 132.441406 134.589844 132.015625 134.269531 131.570312 C 133.953125 131.128906 133.65625 130.667969 133.386719 130.195312 C 133.117188 129.722656 132.871094 129.234375 132.652344 128.738281 C 132.429688 128.238281 132.238281 127.726562 132.070312 127.207031 C 131.902344 126.6875 131.765625 126.164062 131.652344 125.628906 C 131.539062 125.09375 131.457031 124.554688 131.398438 124.015625 C 131.34375 123.472656 131.3125 122.925781 131.3125 122.382812 C 131.3125 121.835938 131.34375 121.292969 131.398438 120.75 C 131.457031 120.207031 131.539062 119.667969 131.652344 119.132812 C 131.765625 118.601562 131.902344 118.074219 132.070312 117.554688 C 132.238281 117.035156 132.429688 116.527344 132.652344 116.027344 C 132.871094 115.527344 133.117188 115.042969 133.386719 114.566406 C 133.65625 114.09375 133.953125 113.636719 134.269531 113.191406 C 134.589844 112.75 134.929688 112.324219 135.289062 111.914062 C 135.652344 111.507812 136.035156 111.121094 136.4375 110.75 Z M 70.960938 240.183594 C 69.277344 241.75 67.378906 242.988281 65.269531 243.902344 C 63.160156 244.816406 60.957031 245.351562 58.664062 245.511719 C 56.539062 245.417969 54.519531 244.90625 52.601562 243.980469 C 50.6875 243.054688 49.03125 241.789062 47.636719 240.183594 C 47.230469 239.816406 46.839844 239.429688 46.472656 239.023438 C 46.105469 238.617188 45.761719 238.191406 45.4375 237.746094 C 45.117188 237.300781 44.816406 236.84375 44.542969 236.367188 C 44.269531 235.894531 44.019531 235.40625 43.796875 234.902344 C 43.570312 234.402344 43.375 233.890625 43.207031 233.371094 C 43.035156 232.847656 42.894531 232.316406 42.78125 231.78125 C 42.664062 231.246094 42.578125 230.703125 42.523438 230.15625 C 42.464844 229.613281 42.4375 229.066406 42.4375 228.515625 C 42.4375 227.96875 42.464844 227.421875 42.523438 226.875 C 42.578125 226.328125 42.664062 225.789062 42.78125 225.25 C 42.894531 224.714844 43.035156 224.183594 43.207031 223.664062 C 43.375 223.140625 43.570312 222.628906 43.796875 222.128906 C 44.019531 221.628906 44.269531 221.140625 44.542969 220.664062 C 44.816406 220.1875 45.117188 219.730469 45.4375 219.285156 C 45.761719 218.84375 46.105469 218.417969 46.472656 218.007812 C 46.839844 217.601562 47.230469 217.214844 47.636719 216.847656 L 81.460938 182.933594 C 83.144531 181.359375 85.042969 180.109375 87.152344 179.183594 C 89.261719 178.253906 91.464844 177.707031 93.761719 177.53125 C 95.894531 177.640625 97.921875 178.160156 99.847656 179.082031 C 101.769531 180.003906 103.441406 181.265625 104.863281 182.859375 C 105.265625 183.222656 105.648438 183.605469 106.011719 184.011719 C 106.375 184.414062 106.71875 184.835938 107.035156 185.273438 C 107.355469 185.714844 107.652344 186.167969 107.925781 186.636719 C 108.199219 187.105469 108.445312 187.589844 108.667969 188.085938 C 108.894531 188.582031 109.089844 189.085938 109.261719 189.601562 C 109.429688 190.117188 109.574219 190.640625 109.691406 191.171875 C 109.808594 191.703125 109.898438 192.238281 109.957031 192.777344 C 110.019531 193.316406 110.050781 193.859375 110.058594 194.402344 C 110.0625 194.945312 110.039062 195.488281 109.988281 196.027344 C 109.9375 196.570312 109.859375 197.105469 109.753906 197.636719 C 109.648438 198.171875 109.515625 198.695312 109.355469 199.214844 C 109.191406 199.734375 109.007812 200.246094 108.792969 200.742188 C 108.578125 201.242188 108.339844 201.730469 108.078125 202.207031 C 107.8125 202.679688 107.527344 203.140625 107.214844 203.585938 C 106.902344 204.03125 106.570312 204.460938 106.214844 204.871094 C 105.859375 205.28125 105.484375 205.671875 105.085938 206.042969 Z M 92.636719 279.425781 C 90.5 279.332031 88.46875 278.824219 86.542969 277.898438 C 84.617188 276.972656 82.945312 275.707031 81.539062 274.097656 C 81.132812 273.730469 80.75 273.339844 80.390625 272.929688 C 80.027344 272.519531 79.6875 272.09375 79.367188 271.648438 C 79.050781 271.203125 78.753906 270.742188 78.484375 270.269531 C 78.214844 269.792969 77.96875 269.304688 77.746094 268.804688 C 77.527344 268.304688 77.332031 267.792969 77.167969 267.273438 C 77 266.75 76.859375 266.222656 76.746094 265.6875 C 76.636719 265.152344 76.550781 264.613281 76.492188 264.066406 C 76.4375 263.523438 76.410156 262.976562 76.410156 262.429688 C 76.410156 261.882812 76.4375 261.339844 76.492188 260.792969 C 76.550781 260.25 76.636719 259.710938 76.746094 259.175781 C 76.859375 258.640625 77 258.113281 77.167969 257.589844 C 77.332031 257.070312 77.527344 256.558594 77.746094 256.058594 C 77.96875 255.558594 78.214844 255.070312 78.484375 254.59375 C 78.753906 254.117188 79.050781 253.660156 79.367188 253.214844 C 79.6875 252.769531 80.027344 252.34375 80.390625 251.933594 C 80.75 251.523438 81.132812 251.132812 81.539062 250.761719 L 115.511719 216.847656 C 117.171875 215.3125 119.039062 214.089844 121.105469 213.175781 C 123.175781 212.265625 125.335938 211.710938 127.585938 211.519531 C 129.710938 211.617188 131.730469 212.125 133.648438 213.050781 C 135.5625 213.976562 137.21875 215.242188 138.613281 216.847656 C 139.019531 217.214844 139.402344 217.605469 139.769531 218.011719 C 140.132812 218.421875 140.476562 218.847656 140.796875 219.292969 C 141.117188 219.738281 141.414062 220.195312 141.6875 220.671875 C 141.960938 221.148438 142.207031 221.636719 142.429688 222.136719 C 142.648438 222.636719 142.84375 223.148438 143.011719 223.667969 C 143.183594 224.191406 143.324219 224.71875 143.4375 225.253906 C 143.550781 225.792969 143.632812 226.332031 143.691406 226.875 C 143.75 227.421875 143.777344 227.96875 143.777344 228.515625 C 143.777344 229.0625 143.75 229.609375 143.691406 230.15625 C 143.632812 230.699219 143.550781 231.242188 143.4375 231.777344 C 143.324219 232.3125 143.183594 232.839844 143.011719 233.363281 C 142.84375 233.882812 142.648438 234.394531 142.429688 234.894531 C 142.207031 235.398438 141.960938 235.886719 141.6875 236.359375 C 141.414062 236.835938 141.117188 237.296875 140.796875 237.738281 C 140.476562 238.183594 140.132812 238.609375 139.769531 239.019531 C 139.402344 239.425781 139.019531 239.816406 138.613281 240.183594 L 105.085938 274.097656 C 103.371094 275.664062 101.445312 276.902344 99.3125 277.8125 C 97.175781 278.726562 94.953125 279.265625 92.636719 279.425781 Z M 138.835938 308.015625 C 137.148438 309.582031 135.25 310.828125 133.144531 311.753906 C 131.035156 312.679688 128.832031 313.234375 126.539062 313.417969 C 124.40625 313.308594 122.386719 312.785156 120.472656 311.84375 C 118.558594 310.90625 116.902344 309.628906 115.511719 308.015625 C 115.105469 307.644531 114.722656 307.257812 114.355469 306.847656 C 113.992188 306.441406 113.648438 306.015625 113.328125 305.570312 C 113.007812 305.125 112.710938 304.664062 112.4375 304.191406 C 112.164062 303.714844 111.917969 303.226562 111.695312 302.726562 C 111.476562 302.226562 111.28125 301.714844 111.109375 301.191406 C 110.941406 300.671875 110.800781 300.144531 110.6875 299.605469 C 110.574219 299.070312 110.488281 298.53125 110.433594 297.984375 C 110.375 297.441406 110.347656 296.894531 110.347656 296.347656 C 110.347656 295.796875 110.375 295.25 110.433594 294.707031 C 110.488281 294.160156 110.574219 293.621094 110.6875 293.085938 C 110.800781 292.550781 110.941406 292.019531 111.109375 291.5 C 111.28125 290.976562 111.476562 290.46875 111.695312 289.964844 C 111.917969 289.464844 112.164062 288.976562 112.4375 288.5 C 112.710938 288.027344 113.007812 287.566406 113.328125 287.121094 C 113.648438 286.679688 113.992188 286.25 114.355469 285.84375 C 114.722656 285.433594 115.105469 285.046875 115.511719 284.679688 L 149.414062 251.0625 C 151.085938 249.5 152.96875 248.261719 155.066406 247.347656 C 157.164062 246.433594 159.355469 245.894531 161.636719 245.734375 C 163.75 245.839844 165.753906 246.355469 167.65625 247.28125 C 169.558594 248.207031 171.199219 249.46875 172.585938 251.0625 C 172.992188 251.433594 173.378906 251.820312 173.742188 252.230469 C 174.109375 252.636719 174.449219 253.0625 174.773438 253.507812 C 175.09375 253.953125 175.390625 254.410156 175.660156 254.886719 C 175.933594 255.363281 176.179688 255.851562 176.402344 256.351562 C 176.625 256.851562 176.820312 257.363281 176.988281 257.882812 C 177.15625 258.40625 177.296875 258.933594 177.410156 259.46875 C 177.523438 260.007812 177.609375 260.546875 177.667969 261.09375 C 177.722656 261.636719 177.753906 262.183594 177.753906 262.730469 C 177.753906 263.277344 177.722656 263.824219 177.667969 264.371094 C 177.609375 264.914062 177.523438 265.457031 177.410156 265.992188 C 177.296875 266.527344 177.15625 267.058594 176.988281 267.578125 C 176.820312 268.097656 176.625 268.609375 176.402344 269.113281 C 176.179688 269.613281 175.933594 270.101562 175.660156 270.574219 C 175.390625 271.050781 175.09375 271.511719 174.773438 271.953125 C 174.449219 272.398438 174.109375 272.824219 173.742188 273.234375 C 173.378906 273.640625 172.992188 274.03125 172.585938 274.398438 Z M 172.585938 341.929688 C 170.894531 343.507812 168.984375 344.761719 166.863281 345.6875 C 164.738281 346.613281 162.523438 347.164062 160.210938 347.332031 C 158.085938 347.238281 156.066406 346.726562 154.152344 345.800781 C 152.238281 344.875 150.582031 343.609375 149.1875 342.003906 C 148.78125 341.636719 148.398438 341.246094 148.03125 340.839844 C 147.667969 340.429688 147.324219 340.003906 147.003906 339.558594 C 146.683594 339.117188 146.386719 338.65625 146.113281 338.179688 C 145.839844 337.707031 145.59375 337.21875 145.371094 336.714844 C 145.148438 336.214844 144.953125 335.703125 144.785156 335.183594 C 144.617188 334.660156 144.476562 334.132812 144.363281 333.597656 C 144.25 333.0625 144.164062 332.519531 144.109375 331.976562 C 144.050781 331.429688 144.023438 330.882812 144.023438 330.335938 C 144.023438 329.789062 144.050781 329.242188 144.109375 328.695312 C 144.164062 328.152344 144.25 327.613281 144.363281 327.074219 C 144.476562 326.539062 144.617188 326.011719 144.785156 325.488281 C 144.953125 324.96875 145.148438 324.457031 145.371094 323.957031 C 145.59375 323.453125 145.839844 322.96875 146.113281 322.492188 C 146.386719 322.015625 146.683594 321.558594 147.003906 321.113281 C 147.324219 320.667969 147.667969 320.242188 148.03125 319.832031 C 148.398438 319.425781 148.78125 319.035156 149.1875 318.667969 L 183.085938 284.679688 C 184.765625 283.125 186.652344 281.890625 188.746094 280.976562 C 190.84375 280.0625 193.03125 279.519531 195.3125 279.351562 C 197.433594 279.464844 199.449219 279.980469 201.359375 280.90625 C 203.273438 281.828125 204.929688 283.085938 206.335938 284.679688 C 207.367188 285.554688 208.261719 286.554688 209.023438 287.671875 C 209.785156 288.792969 210.382812 289.992188 210.816406 291.273438 C 211.253906 292.554688 211.511719 293.871094 211.589844 295.222656 C 211.671875 296.574219 211.570312 297.910156 211.289062 299.234375 C 211.117188 299.648438 210.992188 300.070312 210.914062 300.511719 C 209.964844 303.363281 208.441406 305.867188 206.335938 308.015625 Z M 225.085938 341.929688 C 224.722656 342.335938 224.335938 342.726562 223.925781 343.09375 C 223.519531 343.460938 223.09375 343.804688 222.652344 344.128906 C 222.207031 344.453125 221.75 344.75 221.273438 345.023438 C 220.796875 345.300781 220.3125 345.550781 219.808594 345.773438 C 219.308594 345.996094 218.796875 346.191406 218.277344 346.363281 C 217.753906 346.53125 217.226562 346.675781 216.6875 346.789062 C 216.152344 346.902344 215.613281 346.988281 215.066406 347.046875 C 214.519531 347.105469 213.972656 347.132812 213.425781 347.132812 C 212.875 347.132812 212.328125 347.105469 211.785156 347.046875 C 211.238281 346.988281 210.699219 346.902344 210.160156 346.789062 C 209.625 346.675781 209.09375 346.53125 208.574219 346.363281 C 208.050781 346.191406 207.539062 345.996094 207.039062 345.773438 C 206.539062 345.550781 206.050781 345.300781 205.578125 345.023438 C 205.101562 344.75 204.640625 344.453125 204.199219 344.128906 C 203.753906 343.804688 203.332031 343.460938 202.921875 343.09375 C 202.515625 342.726562 202.128906 342.335938 201.761719 341.929688 L 197.636719 337.800781 L 217.585938 318.59375 C 218.875 317.304688 220.023438 315.90625 221.039062 314.390625 L 225.539062 318.894531 C 225.9375 319.269531 226.320312 319.664062 226.679688 320.082031 C 227.039062 320.5 227.378906 320.933594 227.691406 321.382812 C 228.007812 321.835938 228.296875 322.300781 228.5625 322.785156 C 228.828125 323.265625 229.070312 323.757812 229.28125 324.265625 C 229.496094 324.773438 229.683594 325.289062 229.84375 325.816406 C 230.003906 326.34375 230.136719 326.878906 230.238281 327.417969 C 230.34375 327.957031 230.417969 328.503906 230.464844 329.050781 C 230.511719 329.597656 230.53125 330.148438 230.519531 330.699219 C 230.507812 331.25 230.46875 331.796875 230.402344 332.34375 C 230.335938 332.890625 230.238281 333.429688 230.113281 333.96875 C 229.988281 334.503906 229.835938 335.03125 229.65625 335.550781 C 229.476562 336.070312 229.269531 336.582031 229.035156 337.078125 C 228.804688 337.578125 228.542969 338.0625 228.261719 338.535156 C 227.976562 339.003906 227.667969 339.460938 227.335938 339.898438 C 227.003906 340.339844 226.652344 340.757812 226.273438 341.160156 C 225.898438 341.5625 225.503906 341.945312 225.085938 342.304688 Z M 327.011719 240.484375 C 326.644531 240.890625 326.257812 241.28125 325.851562 241.648438 C 325.445312 242.015625 325.019531 242.359375 324.574219 242.683594 C 324.132812 243.007812 323.671875 243.304688 323.199219 243.582031 C 322.722656 243.855469 322.234375 244.105469 321.734375 244.328125 C 321.234375 244.550781 320.722656 244.75 320.199219 244.917969 C 319.679688 245.085938 319.152344 245.230469 318.613281 245.34375 C 318.078125 245.457031 317.535156 245.542969 316.992188 245.601562 C 316.445312 245.660156 315.898438 245.6875 315.351562 245.6875 C 314.800781 245.6875 314.253906 245.660156 313.707031 245.601562 C 313.164062 245.542969 312.621094 245.457031 312.085938 245.34375 C 311.550781 245.230469 311.019531 245.085938 310.5 244.917969 C 309.976562 244.75 309.464844 244.550781 308.964844 244.328125 C 308.464844 244.105469 307.976562 243.855469 307.5 243.582031 C 307.027344 243.304688 306.566406 243.007812 306.125 242.683594 C 305.679688 242.359375 305.253906 242.015625 304.847656 241.648438 C 304.441406 241.28125 304.054688 240.890625 303.6875 240.484375 L 277.960938 214.746094 C 277.613281 214.398438 277.238281 214.085938 276.828125 213.8125 C 276.417969 213.539062 275.988281 213.304688 275.535156 213.117188 C 275.078125 212.925781 274.609375 212.78125 274.128906 212.683594 C 273.644531 212.585938 273.15625 212.539062 272.664062 212.535156 C 272.171875 212.535156 271.6875 212.582031 271.203125 212.675781 C 270.71875 212.769531 270.25 212.910156 269.792969 213.097656 C 269.339844 213.285156 268.90625 213.515625 268.496094 213.789062 C 268.085938 214.058594 267.707031 214.371094 267.355469 214.714844 C 267.007812 215.0625 266.695312 215.441406 266.417969 215.851562 C 266.144531 216.257812 265.914062 216.691406 265.722656 217.144531 C 265.53125 217.597656 265.386719 218.066406 265.289062 218.550781 C 265.191406 219.03125 265.140625 219.519531 265.140625 220.011719 C 265.136719 220.503906 265.183594 220.992188 265.277344 221.476562 C 265.371094 221.960938 265.511719 222.429688 265.699219 222.886719 C 265.882812 223.34375 266.113281 223.773438 266.386719 224.1875 C 266.65625 224.597656 266.964844 224.976562 267.3125 225.328125 L 293.039062 251.0625 C 293.496094 251.417969 293.933594 251.796875 294.355469 252.199219 C 294.773438 252.601562 295.171875 253.023438 295.542969 253.46875 C 295.917969 253.914062 296.269531 254.375 296.59375 254.855469 C 296.917969 255.335938 297.21875 255.835938 297.492188 256.347656 C 297.765625 256.859375 298.011719 257.386719 298.230469 257.921875 C 298.445312 258.460938 298.636719 259.011719 298.796875 259.570312 C 298.953125 260.125 299.085938 260.691406 299.183594 261.265625 C 299.285156 261.835938 299.355469 262.414062 299.394531 262.992188 C 299.433594 263.570312 299.441406 264.152344 299.421875 264.730469 C 299.398438 265.3125 299.347656 265.890625 299.265625 266.464844 C 299.183594 267.039062 299.070312 267.609375 298.925781 268.171875 C 298.785156 268.734375 298.613281 269.289062 298.410156 269.832031 C 298.210938 270.378906 297.980469 270.910156 297.722656 271.429688 C 297.464844 271.953125 297.179688 272.457031 296.871094 272.949219 C 296.558594 273.4375 296.222656 273.910156 295.863281 274.367188 C 295.503906 274.824219 295.121094 275.257812 294.710938 275.671875 C 294.304688 276.085938 293.878906 276.480469 293.429688 276.847656 C 292.984375 277.21875 292.515625 277.5625 292.03125 277.882812 C 291.546875 278.203125 291.046875 278.496094 290.535156 278.765625 C 290.019531 279.03125 289.488281 279.273438 288.949219 279.484375 C 288.410156 279.695312 287.859375 279.878906 287.296875 280.03125 C 286.738281 280.1875 286.171875 280.308594 285.597656 280.402344 C 285.027344 280.496094 284.449219 280.5625 283.871094 280.59375 C 283.292969 280.628906 282.710938 280.628906 282.132812 280.601562 C 281.550781 280.574219 280.976562 280.515625 280.402344 280.425781 C 279.828125 280.335938 279.261719 280.21875 278.699219 280.066406 C 278.136719 279.917969 277.585938 279.742188 277.042969 279.535156 C 276.5 279.324219 275.972656 279.089844 275.453125 278.828125 C 274.9375 278.5625 274.433594 278.273438 273.945312 277.957031 C 273.460938 277.640625 272.992188 277.300781 272.539062 276.933594 C 272.089844 276.570312 271.660156 276.179688 271.25 275.769531 C 270.839844 275.359375 270.453125 274.925781 270.085938 274.472656 L 244.289062 248.664062 C 243.941406 248.316406 243.5625 248.007812 243.152344 247.734375 C 242.746094 247.464844 242.3125 247.234375 241.859375 247.046875 C 241.40625 246.859375 240.9375 246.71875 240.457031 246.625 C 239.976562 246.527344 239.492188 246.480469 239 246.480469 C 238.507812 246.480469 238.023438 246.527344 237.542969 246.625 C 237.0625 246.71875 236.59375 246.859375 236.140625 247.046875 C 235.6875 247.234375 235.253906 247.464844 234.847656 247.734375 C 234.4375 248.007812 234.058594 248.316406 233.710938 248.664062 C 233.011719 249.371094 232.472656 250.1875 232.09375 251.109375 C 231.71875 252.03125 231.53125 252.992188 231.539062 253.988281 C 231.53125 254.988281 231.71875 255.949219 232.09375 256.871094 C 232.472656 257.792969 233.011719 258.609375 233.710938 259.316406 L 259.511719 285.054688 C 260.242188 285.828125 260.890625 286.664062 261.460938 287.5625 C 262.03125 288.460938 262.507812 289.40625 262.890625 290.398438 C 263.277344 291.390625 263.566406 292.410156 263.753906 293.457031 C 263.945312 294.503906 264.03125 295.558594 264.015625 296.625 C 264 297.6875 263.882812 298.742188 263.664062 299.78125 C 263.445312 300.824219 263.128906 301.832031 262.714844 302.8125 C 262.300781 303.792969 261.796875 304.726562 261.203125 305.609375 C 260.609375 306.492188 259.9375 307.308594 259.183594 308.0625 C 258.433594 308.8125 257.613281 309.488281 256.734375 310.082031 C 255.851562 310.675781 254.917969 311.179688 253.941406 311.59375 C 252.960938 312.007812 251.949219 312.324219 250.910156 312.542969 C 249.867188 312.761719 248.816406 312.878906 247.753906 312.894531 C 246.6875 312.910156 245.632812 312.820312 244.585938 312.632812 C 243.539062 312.445312 242.523438 312.15625 241.53125 311.769531 C 240.539062 311.382812 239.59375 310.90625 238.695312 310.339844 C 237.796875 309.769531 236.960938 309.121094 236.1875 308.390625 L 227.039062 299.234375 C 227.28125 296.917969 227.253906 294.601562 226.953125 292.289062 C 226.65625 289.980469 226.097656 287.730469 225.28125 285.550781 C 224.460938 283.367188 223.398438 281.3125 222.101562 279.375 C 220.800781 277.441406 219.296875 275.683594 217.585938 274.097656 C 216.207031 272.589844 214.691406 271.238281 213.035156 270.039062 C 211.378906 268.839844 209.621094 267.820312 207.757812 266.984375 C 205.894531 266.144531 203.964844 265.503906 201.96875 265.058594 C 199.972656 264.613281 197.957031 264.375 195.914062 264.34375 L 193.210938 264.34375 C 193.378906 262.085938 193.292969 259.839844 192.953125 257.601562 C 192.613281 255.363281 192.027344 253.195312 191.195312 251.089844 C 190.367188 248.984375 189.308594 247 188.03125 245.132812 C 186.75 243.265625 185.277344 241.566406 183.613281 240.035156 C 182.238281 238.53125 180.726562 237.179688 179.074219 235.984375 C 177.425781 234.789062 175.671875 233.769531 173.816406 232.933594 C 171.960938 232.09375 170.035156 231.453125 168.050781 231.003906 C 166.0625 230.558594 164.050781 230.316406 162.011719 230.28125 L 159.3125 230.28125 C 159.457031 228.015625 159.34375 225.765625 158.976562 223.527344 C 158.613281 221.292969 158 219.125 157.144531 217.023438 C 156.285156 214.925781 155.203125 212.949219 153.898438 211.097656 C 152.59375 209.242188 151.097656 207.558594 149.414062 206.042969 C 148.015625 204.546875 146.480469 203.207031 144.808594 202.023438 C 143.136719 200.839844 141.363281 199.839844 139.484375 199.019531 C 137.609375 198.199219 135.667969 197.578125 133.664062 197.15625 C 131.660156 196.734375 129.636719 196.519531 127.585938 196.515625 C 126.664062 196.4375 125.738281 196.4375 124.8125 196.515625 C 124.992188 194.253906 124.914062 192.003906 124.582031 189.757812 C 124.25 187.515625 123.671875 185.339844 122.847656 183.226562 C 122.023438 181.117188 120.972656 179.125 119.695312 177.25 C 118.421875 175.375 116.949219 173.667969 115.289062 172.128906 C 113.910156 170.621094 112.390625 169.265625 110.734375 168.066406 C 109.078125 166.871094 107.320312 165.851562 105.457031 165.011719 C 103.59375 164.175781 101.664062 163.53125 99.667969 163.089844 C 97.675781 162.644531 95.65625 162.40625 93.613281 162.375 C 91.488281 162.457031 89.390625 162.730469 87.320312 163.199219 C 85.246094 163.664062 83.234375 164.3125 81.277344 165.148438 C 79.324219 165.980469 77.460938 166.984375 75.691406 168.15625 C 73.917969 169.332031 72.265625 170.652344 70.738281 172.128906 L 45.085938 198.539062 C 41.496094 192.972656 38.3125 187.183594 35.535156 181.164062 C 32.761719 175.148438 30.421875 168.96875 28.519531 162.621094 C 26.613281 156.273438 25.167969 149.824219 24.171875 143.273438 C 23.179688 136.722656 22.652344 130.132812 22.585938 123.507812 C 22.585938 120.28125 28.363281 44.121094 109.664062 36.320312 C 147.164062 34.59375 166.4375 44.648438 176.488281 51.699219 L 125.789062 100.773438 C 125.03125 101.484375 124.3125 102.234375 123.628906 103.023438 C 122.949219 103.808594 122.308594 104.628906 121.710938 105.480469 C 121.117188 106.335938 120.5625 107.214844 120.054688 108.125 C 119.546875 109.03125 119.089844 109.964844 118.675781 110.917969 C 118.261719 111.875 117.898438 112.847656 117.585938 113.84375 C 117.273438 114.835938 117.011719 115.839844 116.800781 116.859375 C 116.589844 117.878906 116.433594 118.90625 116.328125 119.941406 C 116.222656 120.976562 116.167969 122.015625 116.167969 123.058594 C 116.167969 124.097656 116.222656 125.136719 116.328125 126.171875 C 116.433594 127.207031 116.589844 128.234375 116.800781 129.253906 C 117.011719 130.273438 117.273438 131.277344 117.585938 132.273438 C 117.898438 133.265625 118.261719 134.238281 118.675781 135.195312 C 119.089844 136.148438 119.546875 137.082031 120.054688 137.992188 C 120.5625 138.898438 121.117188 139.78125 121.710938 140.632812 C 122.308594 141.484375 122.949219 142.304688 123.628906 143.089844 C 124.3125 143.878906 125.03125 144.628906 125.789062 145.34375 C 126.5 146.097656 127.25 146.820312 128.039062 147.5 C 128.824219 148.179688 129.644531 148.820312 130.496094 149.417969 C 131.347656 150.015625 132.226562 150.570312 133.136719 151.074219 C 134.042969 151.582031 134.976562 152.042969 135.929688 152.457031 C 136.886719 152.871094 137.859375 153.234375 138.851562 153.546875 C 139.84375 153.859375 140.847656 154.121094 141.867188 154.332031 C 142.886719 154.542969 143.914062 154.699219 144.949219 154.804688 C 145.984375 154.914062 147.023438 154.964844 148.0625 154.964844 C 149.101562 154.964844 150.140625 154.914062 151.175781 154.804688 C 152.210938 154.699219 153.238281 154.542969 154.257812 154.332031 C 155.273438 154.121094 156.28125 153.859375 157.273438 153.546875 C 158.265625 153.234375 159.238281 152.871094 160.195312 152.457031 C 161.148438 152.042969 162.082031 151.582031 162.988281 151.074219 C 163.898438 150.570312 164.777344 150.015625 165.628906 149.417969 C 166.480469 148.820312 167.300781 148.179688 168.085938 147.5 C 168.875 146.820312 169.625 146.097656 170.335938 145.34375 L 219.460938 96.269531 L 327.011719 217.824219 C 327.390625 218.191406 327.75 218.574219 328.089844 218.976562 C 328.433594 219.378906 328.75 219.796875 329.050781 220.234375 C 329.347656 220.667969 329.625 221.117188 329.878906 221.578125 C 330.128906 222.039062 330.359375 222.515625 330.566406 223 C 330.773438 223.484375 330.953125 223.980469 331.109375 224.484375 C 331.265625 224.988281 331.394531 225.496094 331.5 226.015625 C 331.605469 226.53125 331.683594 227.050781 331.738281 227.574219 C 331.789062 228.101562 331.816406 228.625 331.816406 229.152344 C 331.816406 229.679688 331.789062 230.207031 331.738281 230.730469 C 331.683594 231.257812 331.605469 231.777344 331.5 232.292969 C 331.394531 232.808594 331.265625 233.320312 331.109375 233.824219 C 330.953125 234.328125 330.773438 234.820312 330.566406 235.308594 C 330.359375 235.792969 330.128906 236.265625 329.878906 236.730469 C 329.625 237.191406 329.347656 237.640625 329.050781 238.074219 C 328.75 238.507812 328.433594 238.929688 328.089844 239.332031 C 327.75 239.734375 327.390625 240.117188 327.011719 240.484375 Z M 327.011719 240.484375 " fill-opacity="1" fill-rule="nonzero"/></g></svg>